<svg width="214" height="51" viewBox="0 0 214 51" fill="none" xmlns="http://www.w3.org/2000/svg">
<g clip-path="url(#clip0_1_1221)">
<path d="M130.069 28.5492C130.069 29.4526 129.842 30.3563 129.311 31.1092C128.779 31.862 128.097 32.4643 127.11 32.916C126.124 33.3677 124.909 33.5939 123.467 33.5939C122.253 33.5939 121.115 33.4433 119.976 33.1422C118.838 32.841 117.928 32.3893 117.245 31.862L119.521 29.1518C119.976 29.3776 120.432 29.5282 120.963 29.7541C121.874 30.0552 122.709 30.2058 123.543 30.2058C125.137 30.2058 125.972 29.7541 125.972 28.9259C125.972 28.4742 125.744 28.1731 125.289 27.9469C124.833 27.7211 124.075 27.4952 123.088 27.2693C121.95 27.0435 121.039 26.7424 120.28 26.4412C119.521 26.1401 118.914 25.6884 118.307 25.0861C117.776 24.4838 117.472 23.5801 117.472 22.5261C117.472 21.5471 117.7 20.719 118.231 19.9661C118.762 19.2133 119.445 18.611 120.432 18.1593C121.418 17.7076 122.633 17.4814 124.075 17.4814C125.061 17.4814 126.048 17.632 126.958 17.8578C127.945 18.0837 128.779 18.4601 129.462 18.8365L127.11 21.6224C126.048 21.1707 124.985 20.9448 123.999 20.9448C123.164 20.9448 122.557 21.0954 122.177 21.3212C121.798 21.5471 121.57 21.9235 121.57 22.3003C121.57 22.752 121.798 23.0531 122.253 23.2037C122.709 23.4295 123.467 23.6554 124.454 23.8812C125.413 24.0699 126.353 24.3471 127.262 24.7094C128.021 25.0105 128.628 25.4622 129.235 26.0645C129.766 26.5918 130.069 27.4952 130.069 28.5492ZM214 28.5492C214 29.4526 213.772 30.3563 213.241 31.1092C212.71 31.862 212.027 32.4643 211.041 32.916C210.054 33.3677 208.84 33.5939 207.398 33.5939C206.184 33.5939 205.045 33.4433 203.907 33.1422C202.769 32.841 201.858 32.3893 201.175 31.862L203.452 29.1518C203.907 29.3776 204.362 29.5282 204.894 29.7541C205.804 30.0552 206.639 30.2058 207.474 30.2058C209.067 30.2058 209.902 29.7541 209.902 28.9259C209.902 28.4742 209.675 28.1731 209.219 27.9469C208.764 27.7211 208.005 27.4952 207.018 27.2693C206.059 27.0807 205.119 26.8035 204.211 26.4412C203.452 26.1401 202.845 25.6884 202.238 25.0861C201.707 24.4838 201.403 23.5801 201.403 22.5261C201.403 21.5471 201.631 20.719 202.162 19.9661C202.693 19.2133 203.376 18.611 204.362 18.1593C205.349 17.7076 206.563 17.4814 208.005 17.4814C208.992 17.4814 209.978 17.632 210.889 17.8578C211.875 18.0837 212.71 18.4601 213.393 18.8365L211.041 21.6224C209.978 21.1707 208.916 20.9448 207.929 20.9448C207.094 20.9448 206.487 21.0954 206.108 21.3212C205.728 21.5471 205.501 21.9235 205.501 22.3003C205.501 22.752 205.728 23.0531 206.184 23.2037C206.639 23.4295 207.398 23.6554 208.384 23.8812C209.344 24.0699 210.284 24.3471 211.192 24.7094C211.951 25.0105 212.558 25.4622 213.165 26.0645C213.772 26.5918 214 27.4952 214 28.5492ZM28.1538 23.4295C28.1538 24.6341 27.8504 25.6131 27.3193 26.4409C26.7878 27.2693 26.0292 27.9469 25.0425 28.3986C24.0558 28.8503 22.8416 29.0765 21.5519 29.0765H18.9717V33.1419H14.7221V17.557H21.5519C22.9179 17.557 24.0561 17.7829 25.0425 18.2346C26.0292 18.6863 26.7878 19.3642 27.3193 20.2676C27.9264 21.2463 28.1538 22.3006 28.1538 23.4295ZM23.9042 23.4295C23.9042 22.6767 23.6768 22.1497 23.2212 21.7733C22.7657 21.3968 22.1589 21.171 21.2481 21.171H18.8958V25.7637H21.2481C22.083 25.7637 22.766 25.5375 23.2216 25.1614C23.6771 24.7853 23.9042 24.1824 23.9042 23.4295ZM41.8136 29.9046V33.2927H29.8995V17.7073H41.5099V21.0954H34.0731V23.7307H39.9921V27.0435H34.0731V29.9043L41.8136 29.9046ZM57.9014 17.7073V33.2927H54.4108L47.8085 25.0105V33.2927H43.6349V17.7073H47.1255L53.7278 25.9895V17.7073H57.9014ZM84.8411 29.7541V33.2171H74.2929V17.632H78.5425V29.6788H84.8411V29.7541ZM103.054 33.2927H98.6524L97.5142 30.281H91.2156L90.0773 33.2924H85.7519L92.3538 17.7073H96.5278L103.054 33.2927ZM96.3 26.9682L94.4028 21.9988L92.5057 26.9682H96.3ZM116.334 28.5492C116.334 29.4526 116.107 30.3563 115.575 31.1092C115.044 31.862 114.361 32.4643 113.375 32.916C112.388 33.3677 111.174 33.5939 109.732 33.5939C108.518 33.5939 107.379 33.4433 106.241 33.1422C105.103 32.841 104.192 32.3893 103.509 31.862L105.786 29.1518C106.241 29.3776 106.696 29.5282 107.228 29.7541C108.138 30.0552 108.973 30.2058 109.808 30.2058C111.401 30.2058 112.236 29.7541 112.236 28.9259C112.236 28.4742 112.009 28.1731 111.553 27.9469C111.098 27.7211 110.339 27.4952 109.352 27.2693C108.214 27.0435 107.304 26.7424 106.545 26.4412C105.786 26.1401 105.179 25.6884 104.572 25.0861C104.041 24.4838 103.737 23.5801 103.737 22.5261C103.737 21.5471 103.965 20.719 104.496 19.9661C105.027 19.2133 105.71 18.611 106.697 18.1593C107.683 17.7076 108.897 17.4814 110.339 17.4814C111.325 17.4814 112.312 17.632 113.223 17.8578C114.209 18.0837 114.968 18.4601 115.727 18.8365L113.375 21.6224C112.312 21.1707 111.25 20.9448 110.263 20.9448C109.428 20.9448 108.821 21.0954 108.442 21.3212C108.062 21.5471 107.835 21.9235 107.835 22.3003C107.835 22.752 108.062 23.0531 108.518 23.2037C108.973 23.4295 109.732 23.6554 110.718 23.8812C111.678 24.0699 112.618 24.3471 113.526 24.7094C114.285 25.0105 114.892 25.4622 115.499 26.0645C116.031 26.5918 116.334 27.4952 116.334 28.5492ZM12.9765 25.4622C12.9765 29.9046 9.33399 33.5939 4.78072 33.5939C2.95948 33.5939 1.36569 32.9916 0 32.0126L2.73202 28.7754C3.3391 29.1518 4.02211 29.3776 4.78072 29.3776C6.90566 29.3776 8.65098 27.6458 8.65098 25.5378C8.65098 23.4295 6.90566 21.6977 4.78104 21.6977C4.02179 21.6977 3.3391 21.9235 2.73202 22.2999L0 19.063C1.36601 18.0837 3.0354 17.4814 4.78072 17.4814C9.33399 17.4061 12.9765 21.0198 12.9765 25.4622ZM69.8915 28.775L72.6235 32.0129C71.2575 32.9916 69.5878 33.5939 67.8425 33.5939C63.3651 33.5939 59.6467 29.9799 59.6467 25.4622C59.6467 21.0204 63.2892 17.3308 67.8425 17.3308C69.6637 17.3308 71.2575 17.9331 72.6235 18.9121L69.8915 22.1494C69.2844 21.7729 68.6014 21.5471 67.8425 21.5471C65.7179 21.5471 63.9722 23.279 63.9722 25.3869C63.9722 27.4952 65.7179 29.2271 67.8425 29.2271C68.6014 29.3776 69.2844 29.1515 69.8915 28.775ZM145.55 33.2927L142.211 28.4739C143.198 28.0222 143.881 27.3446 144.412 26.5165C144.943 25.6884 145.247 24.6341 145.247 23.5048C145.247 22.3003 144.943 21.3212 144.412 20.4178C143.881 19.5144 143.122 18.9121 142.135 18.3848C141.149 17.9331 139.935 17.7073 138.645 17.7073H131.815V33.2927H135.989V29.2271H137.962L140.769 33.2924L145.55 33.2927ZM135.989 21.1707H138.417C139.252 21.1707 139.935 21.3965 140.39 21.7729C140.845 22.1494 141.073 22.752 141.073 23.4292C141.073 24.1824 140.845 24.7094 140.39 25.0858C139.935 25.4622 139.328 25.6881 138.417 25.6881H135.989V21.1707ZM155.036 17.4061C159.514 17.4061 163.232 21.0201 163.232 25.5375C163.232 30.0549 159.589 33.6692 155.036 33.6692C150.559 33.6692 146.841 30.0552 146.841 25.5375C146.841 21.0198 150.483 17.4061 155.036 17.4061ZM150.862 25.4622C150.862 27.7211 152.684 29.5282 154.96 29.5282C157.237 29.5282 159.058 27.7214 159.058 25.4622C159.058 23.203 157.237 21.3968 154.96 21.3968C152.759 21.3968 150.862 23.2037 150.862 25.4622ZM172.642 17.4061C177.119 17.4061 180.838 21.0201 180.838 25.5375C180.838 30.0549 177.195 33.6692 172.642 33.6692C168.165 33.6692 164.446 30.0552 164.446 25.5375C164.446 21.0198 168.165 17.4061 172.642 17.4061ZM168.544 25.4622C168.544 27.7211 170.365 29.5282 172.642 29.5282C174.918 29.5282 176.74 27.7214 176.74 25.4622C176.74 23.203 174.918 21.3968 172.642 21.3968C170.365 21.3968 168.544 23.2037 168.544 25.4622ZM191.082 27.6458L186.074 17.7073H182.583V33.2927H186.301V26.4412L190.02 33.2927H192.221L195.939 26.4412V33.2927H199.658V17.7073H196.167L191.082 27.6458Z" fill="#7451EB"/>
</g>
<defs>
<clipPath id="clip0_1_1221">
<rect width="214" height="51" fill="white"/>
</clipPath>
</defs>
</svg>
