<svg width="33" height="32" viewBox="0 0 33 32" fill="none" xmlns="http://www.w3.org/2000/svg">
<g clip-path="url(#clip0_1_1234)">
<path d="M21.6042 18.6667H20.5508L20.1775 18.3067C21.4842 16.7867 22.2708 14.8133 22.2708 12.6667C22.2708 7.88 18.3908 4 13.6042 4C8.8175 4 4.9375 7.88 4.9375 12.6667C4.9375 17.4533 8.8175 21.3333 13.6042 21.3333C15.7508 21.3333 17.7242 20.5467 19.2442 19.24L19.6042 19.6133V20.6667L26.2708 27.32L28.2575 25.3333L21.6042 18.6667ZM13.6042 18.6667C10.2842 18.6667 7.60417 15.9867 7.60417 12.6667C7.60417 9.34667 10.2842 6.66667 13.6042 6.66667C16.9242 6.66667 19.6042 9.34667 19.6042 12.6667C19.6042 15.9867 16.9242 18.6667 13.6042 18.6667Z" fill="#271A38"/>
</g>
<defs>
<clipPath id="clip0_1_1234">
<rect width="32" height="32" fill="white" transform="translate(0.9375)"/>
</clipPath>
</defs>
</svg>
